<?xml version="1.0" standalone="no"?>
<!DOCTYPE svg PUBLIC "-//W3C//DTD SVG 20010904//EN"
 "http://www.w3.org/TR/2001/REC-SVG-20010904/DTD/svg10.dtd">
<svg version="1.0" xmlns="http://www.w3.org/2000/svg"
 width="40.000000pt" height="40.000000pt" viewBox="0 0 96.000000 96.000000"
 preserveAspectRatio="xMidYMid meet">

<g transform="translate(0.000000,96.000000) scale(0.100000,-0.100000)"
fill="#000000" stroke="none">
<path d="M440 835 c0 -125 0 -125 -25 -131 -14 -3 -26 -9 -26 -13 -7 -33 -5
-223 2 -227 16 -10 9 -23 -42 -80 -61 -67 -79 -107 -79 -171 1 -86 53 -164
132 -197 135 -57 287 47 288 197 0 64 -18 104 -80 172 -36 40 -49 62 -44 73 4
10 8 62 9 117 1 77 -1 104 -13 118 -14 16 -12 21 21 55 39 40 45 60 25 80 -18
18 -39 15 -65 -10 l-23 -21 0 81 c0 48 -4 82 -10 82 -5 0 -10 -6 -10 -12 0 -7
-9 -24 -20 -38 l-20 -25 0 38 c0 20 -4 37 -10 37 -6 0 -10 -48 -10 -125z m60
17 c0 -26 -7 -45 -20 -57 -20 -18 -20 -17 -20 26 0 42 13 69 32 69 4 0 8 -17
8 -38z m90 -56 c0 -6 -16 -27 -35 -46 l-35 -34 0 31 c0 22 8 38 26 52 27 21
44 20 44 -3z m-90 -51 c0 -28 -4 -35 -20 -35 -25 0 -26 26 -3 52 22 24 23 23
23 -17z m58 -77 c3 -16 -6 -18 -77 -18 -61 0 -81 3 -81 13 0 24 13 28 84 25
58 -2 71 -6 74 -20z m-10 -60 c3 -16 -5 -18 -67 -18 -38 0 -73 5 -76 10 -14
22 9 31 73 28 54 -2 67 -6 70 -20z m10 -60 c3 -16 -6 -18 -72 -18 -41 0 -78 5
-81 10 -14 22 9 31 78 28 59 -2 72 -6 75 -20z m-8 -58 c0 -18 -7 -20 -68 -20
-73 0 -84 4 -75 26 4 10 24 14 74 14 62 0 69 -2 69 -20z m-93 -56 c9 -23 -50
-79 -71 -67 -14 8 -12 14 15 46 33 40 46 45 56 21z m103 -21 c29 -32 30 -37
15 -46 -13 -7 -26 -1 -56 29 -45 44 -48 54 -15 54 15 0 36 -14 56 -37z m-29
-60 c65 -68 79 -92 79 -138 0 -103 -111 -168 -197 -115 -59 36 -82 126 -47
180 20 30 106 120 114 120 3 0 26 -21 51 -47z m-154 -9 c3 -8 -3 -25 -15 -37
-11 -12 -23 -32 -27 -44 -6 -23 -45 -33 -45 -13 0 15 29 71 48 93 19 21 31 22
39 1z m245 -1 c19 -22 48 -78 48 -93 0 -5 -9 -10 -20 -10 -11 0 -20 4 -20 9 0
4 -12 25 -26 46 -34 51 -19 90 18 48z m-285 -174 c13 -52 10 -69 -8 -69 -13 0
-39 63 -39 95 0 17 5 25 18 25 13 0 20 -14 29 -51z m333 26 c0 -32 -26 -95
-39 -95 -18 0 -21 17 -8 69 9 37 16 51 29 51 13 0 18 -8 18 -25z m-263 -115
c21 -11 43 -20 50 -20 7 0 13 -9 13 -20 0 -24 -18 -25 -63 -6 -47 20 -71 41
-63 54 10 16 20 15 63 -8z m210 5 c4 -14 -55 -52 -94 -60 -29 -6 -33 -4 -33
14 0 12 6 21 13 21 7 0 28 9 47 20 37 20 61 22 67 5z"/>
</g>
</svg>
