<?xml version="1.0" standalone="no"?>
<!DOCTYPE svg PUBLIC "-//W3C//DTD SVG 20010904//EN"
 "http://www.w3.org/TR/2001/REC-SVG-20010904/DTD/svg10.dtd">
<svg version="1.0" xmlns="http://www.w3.org/2000/svg"
 width="40.000000pt" height="40.000000pt" viewBox="0 0 50.000000 50.000000"
 preserveAspectRatio="xMidYMid meet">

<g transform="translate(0.000000,50.000000) scale(0.100000,-0.100000)"
fill="#000000" stroke="none">
<path d="M194 485 c-19 -15 -19 -15 0 -30 11 -8 36 -15 56 -15 20 0 45 7 56
15 19 15 19 15 0 30 -11 8 -36 15 -56 15 -20 0 -45 -7 -56 -15z m96 -15 c0 -5
-18 -10 -40 -10 -22 0 -40 5 -40 10 0 6 18 10 40 10 22 0 40 -4 40 -10z"/>
<path d="M44 445 c-51 -35 -53 -81 -14 -308 26 -146 28 -149 80 -122 40 21 67
59 75 105 4 25 12 40 21 40 10 0 14 -14 14 -55 0 -51 15 -105 30 -105 15 0 30
54 30 105 0 42 4 55 15 55 8 0 15 -8 15 -17 1 -37 40 -103 72 -123 52 -32 65
-27 72 27 4 27 16 94 27 151 23 124 24 173 4 212 -33 64 -82 66 -142 4 -24
-25 -43 -47 -41 -48 46 -21 108 -95 108 -127 0 -20 -34 -39 -93 -54 -45 -12
-31 12 18 31 25 9 45 19 45 22 0 11 -53 82 -61 82 -4 0 -9 -21 -11 -47 -2 -27
-7 -47 -13 -45 -5 2 -9 16 -9 32 1 20 -3 30 -12 30 -8 0 -14 10 -14 25 0 14
-4 25 -10 25 -5 0 -10 -11 -10 -25 0 -15 -6 -25 -14 -25 -9 0 -13 -10 -12 -27
0 -16 -3 -30 -9 -33 -6 -3 -11 15 -13 43 -2 26 -7 47 -11 47 -7 0 -61 -74 -61
-83 0 -3 20 -12 44 -21 34 -13 50 -15 65 -7 27 15 41 14 41 -3 0 -23 -66 -29
-121 -11 -28 10 -53 23 -55 30 -11 28 63 135 93 135 20 0 16 8 -31 55 -47 48
-76 56 -112 30z m91 -35 l29 -30 -26 -27 c-38 -40 -68 -94 -68 -121 0 -19 10
-28 50 -45 50 -21 56 -30 44 -74 -7 -26 -24 -21 -24 8 0 10 -5 19 -11 19 -7 0
-9 -13 -5 -37 4 -21 2 -44 -3 -52 -7 -10 -11 -2 -16 31 -7 45 -20 76 -29 68
-2 -3 0 -29 6 -59 6 -34 6 -57 0 -63 -6 -6 -12 6 -17 34 -3 23 -16 92 -27 152
-23 125 -20 182 12 208 31 25 52 22 85 -12z m324 4 c26 -34 27 -77 2 -214 -11
-58 -23 -123 -26 -145 -6 -31 -9 -36 -15 -20 -3 10 -3 39 2 64 8 47 3 65 -12
41 -8 -13 -15 -69 -11 -92 0 -5 -3 -8 -8 -8 -15 0 -22 31 -15 66 4 22 2 34 -5
34 -6 0 -11 -11 -11 -25 0 -38 -17 -30 -25 11 -3 20 -5 37 -3 39 2 1 24 12 51
23 36 16 47 26 47 44 0 27 -31 81 -68 121 l-26 27 29 30 c35 37 67 38 94 4z
m-293 -171 c-10 -10 -19 5 -10 18 6 11 8 11 12 0 2 -7 1 -15 -2 -18z m94 12
c0 -8 -4 -15 -10 -15 -5 0 -10 7 -10 15 0 8 5 15 10 15 6 0 10 -7 10 -15z m90
-6 c0 -5 -4 -9 -10 -9 -5 0 -10 7 -10 16 0 8 5 12 10 9 6 -3 10 -10 10 -16z
m-90 -144 c0 -37 -4 -65 -10 -65 -6 0 -10 28 -10 65 0 37 4 65 10 65 6 0 10
-28 10 -65z"/>
<path d="M200 417 c0 -22 30 -57 50 -57 20 0 50 35 50 57 0 22 -16 15 -28 -12
-6 -14 -16 -25 -22 -25 -6 0 -16 11 -22 25 -12 27 -28 34 -28 12z"/>
</g>
</svg>
